<svg width="32" height="32" viewBox="0 0 32 32" fill="none" xmlns="http://www.w3.org/2000/svg">
<path d="M6.5 13C8.433 13 10 11.433 10 9.5C10 7.567 8.433 6 6.5 6C4.567 6 3 7.567 3 9.5C3 11.433 4.567 13 6.5 13Z" stroke="#E9B824" stroke-width="2" stroke-linecap="round" stroke-linejoin="round"/>
<path d="M6.5 26C8.433 26 10 24.433 10 22.5C10 20.567 8.433 19 6.5 19C4.567 19 3 20.567 3 22.5C3 24.433 4.567 26 6.5 26Z" stroke="#E9B824" stroke-width="2" stroke-linecap="round" stroke-linejoin="round"/>
<path d="M9.8125 10.9375L9.125 11.875L11.4375 12.8125C11.4375 12.8125 11.6538 12.4112 11.875 12.1875L9.8125 10.9375Z" stroke="#E9B824" stroke-width="2" stroke-miterlimit="10" stroke-linecap="square"/>
<path d="M9.63516 20.9019L28.7495 10.1251C28.5933 9.7063 26.9995 9.37505 24.7495 9.87505C22.9295 10.2794 17.177 11.6907 14.802 13.3782C12.8652 14.7538 14.187 17.0001 11.9995 18.6251C10.3989 19.8126 9.22266 20.0513 9.22266 20.0513L9.63516 20.9019ZM21.5289 17.3901L18.437 19.1669C19.3264 19.5882 22.5333 21.2463 25.7495 21.4376C26.682 21.4932 27.6245 21.4619 28.187 21.0626L21.5289 17.3901Z" stroke="#E9B824" stroke-width="2" stroke-miterlimit="10" stroke-linecap="round"/>
<path d="M16 17C17.1046 17 18 16.1046 18 15C18 13.8954 17.1046 13 16 13C14.8954 13 14 13.8954 14 15C14 16.1046 14.8954 17 16 17Z" stroke="#E9B824" stroke-width="2" stroke-miterlimit="10"/>
</svg>
