<svg width="15" height="17" viewBox="0 0 15 17" fill="none" xmlns="http://www.w3.org/2000/svg">
<g clip-path="url(#clip0_830_575)">
<path d="M10.4706 6.26094C11.5011 6.99722 12.7636 7.43043 14.1271 7.43043V4.80809C13.869 4.80814 13.6116 4.78122 13.3592 4.72776V6.79192C11.9958 6.79192 10.7335 6.35876 9.70278 5.62254V10.974C9.70278 13.6512 7.53142 15.8212 4.85313 15.8212C3.85379 15.8212 2.92491 15.5193 2.15332 15.0014C3.03398 15.9014 4.26212 16.4597 5.6208 16.4597C8.29931 16.4597 10.4707 14.2896 10.4707 11.6124V6.26094H10.4706ZM11.4179 3.61531C10.8913 3.04025 10.5454 2.29708 10.4706 1.47545V1.13818H9.74295C9.92612 2.18243 10.5509 3.07457 11.4179 3.61531ZM3.84733 12.9471C3.55309 12.5615 3.39404 12.0897 3.39475 11.6047C3.39475 10.3803 4.38791 9.38756 5.61324 9.38756C5.84155 9.38745 6.06852 9.42249 6.28618 9.49145V6.81046C6.03183 6.77565 5.77517 6.7608 5.51862 6.76627V8.853C5.30087 8.78398 5.07377 8.74896 4.84535 8.74916C3.62008 8.74916 2.62698 9.74183 2.62698 10.9664C2.62698 11.8323 3.12336 12.5819 3.84733 12.9471Z" fill="#FF004F"/>
<path d="M9.70215 5.62249C10.7329 6.35871 11.9951 6.79187 13.3585 6.79187V4.7277C12.5975 4.56566 11.9238 4.1682 11.4172 3.61531C10.5502 3.07451 9.92549 2.18238 9.74232 1.13818H7.83098V11.6123C7.82662 12.8334 6.83517 13.822 5.61249 13.822C4.89205 13.822 4.25194 13.4788 3.84659 12.947C3.12273 12.5819 2.62629 11.8322 2.62629 10.9664C2.62629 9.74199 3.61939 8.74922 4.84466 8.74922C5.07942 8.74922 5.30568 8.78574 5.51793 8.85305V6.76632C2.88665 6.82067 0.770508 8.96952 0.770508 11.6123C0.770508 12.9316 1.29746 14.1276 2.15274 15.0015C2.92433 15.5193 3.85316 15.8213 4.85255 15.8213C7.53089 15.8213 9.7022 13.6511 9.7022 10.974L9.70215 5.62249Z" fill="#2C2C2C"/>
<path d="M13.3588 4.72786V4.16985C12.6725 4.17089 11.9998 3.9788 11.4175 3.61553C11.9329 4.17951 12.6116 4.56843 13.3588 4.72797M9.74252 1.13834C9.72506 1.03857 9.71166 0.93813 9.70235 0.837269V0.5H7.06323V10.9742C7.05904 12.1952 6.06759 13.1839 4.84486 13.1839C4.49823 13.1844 4.15633 13.1034 3.84679 12.9473C4.25214 13.479 4.89225 13.8222 5.6127 13.8222C6.83532 13.8222 7.82687 12.8336 7.83118 11.6126V1.1384L9.74252 1.13834ZM5.5183 6.76648V6.17233C5.29777 6.14219 5.07544 6.12711 4.85286 6.1272C2.17424 6.1272 0.00292969 8.29735 0.00292969 10.9742C0.00292969 12.6525 0.856281 14.1316 2.15305 15.0016C1.29777 14.1278 0.770819 12.9317 0.770819 11.6125C0.770819 8.96974 2.8869 6.82083 5.5183 6.76648Z" fill="#00F2EA"/>
</g>
<defs>
<clipPath id="clip0_830_575">
<rect width="14.13" height="16" fill="white" transform="translate(0 0.5)"/>
</clipPath>
</defs>
</svg>
