<svg width="23" height="17" viewBox="0 0 23 17" fill="none" xmlns="http://www.w3.org/2000/svg">
<g clip-path="url(#clip0_830_579)">
<path d="M22.3848 2.99556C22.2543 2.51321 21.9997 2.07346 21.6464 1.72011C21.293 1.36677 20.8533 1.11214 20.371 0.9816C18.6051 0.5 11.4981 0.5 11.4981 0.5C11.4981 0.5 4.3907 0.514578 2.62483 0.996178C2.14248 1.12673 1.70274 1.38137 1.3494 1.73473C0.99607 2.08809 0.741473 2.52786 0.610964 3.01022C0.0768308 6.14782 -0.130369 10.9288 0.625631 13.9409C0.756153 14.4232 1.01076 14.863 1.36409 15.2163C1.71742 15.5697 2.15715 15.8243 2.6395 15.9548C4.40536 16.4364 11.5126 16.4364 11.5126 16.4364C11.5126 16.4364 18.6197 16.4364 20.3855 15.9548C20.8678 15.8243 21.3076 15.5697 21.6609 15.2163C22.0143 14.863 22.2689 14.4233 22.3994 13.9409C22.9628 10.7988 23.1364 6.0208 22.3848 2.99556Z" fill="#FF0000"/>
<path d="M9.23633 11.8831L15.1322 8.46816L9.23633 5.05322V11.8831Z" fill="white"/>
</g>
<defs>
<clipPath id="clip0_830_579">
<rect width="22.76" height="16" fill="white" transform="translate(0.129883 0.5)"/>
</clipPath>
</defs>
</svg>
