<svg width="16" height="17" viewBox="0 0 16 17" fill="none" xmlns="http://www.w3.org/2000/svg">
<path d="M7.99967 8.16683C7.55765 8.16683 7.13372 7.99123 6.82116 7.67867C6.5086 7.36611 6.33301 6.94219 6.33301 6.50016C6.33301 6.05814 6.5086 5.63421 6.82116 5.32165C7.13372 5.00909 7.55765 4.8335 7.99967 4.8335C8.4417 4.8335 8.86563 5.00909 9.17819 5.32165C9.49075 5.63421 9.66634 6.05814 9.66634 6.50016C9.66634 6.71903 9.62323 6.93576 9.53947 7.13797C9.45572 7.34018 9.33295 7.52391 9.17819 7.67867C9.02342 7.83344 8.83969 7.9562 8.63748 8.03996C8.43527 8.12372 8.21854 8.16683 7.99967 8.16683ZM7.99967 1.8335C6.762 1.8335 5.57501 2.32516 4.69984 3.20033C3.82467 4.0755 3.33301 5.26249 3.33301 6.50016C3.33301 10.0002 7.99967 15.1668 7.99967 15.1668C7.99967 15.1668 12.6663 10.0002 12.6663 6.50016C12.6663 5.26249 12.1747 4.0755 11.2995 3.20033C10.4243 2.32516 9.23735 1.8335 7.99967 1.8335Z" fill="#2C2C2C"/>
</svg>
